<svg width="19" height="27" viewBox="0 0 19 27" fill="none" xmlns="http://www.w3.org/2000/svg">
<path d="M9.89769 26.8352L18.3352 18.3977C18.5549 18.178 18.5549 17.822 18.3352 17.6023C18.1154 17.3826 17.7595 17.3826 17.5398 17.6023L10.0625 25.0796L10.0625 0.562518C10.0625 0.251596 9.81089 0 9.49997 0C9.18904 0 8.93745 0.251596 8.93745 0.562518L8.93745 25.0796L1.46019 17.6023C1.24044 17.3826 0.884489 17.3826 0.664797 17.6023C0.554951 17.7122 0.500002 17.8561 0.500002 18C0.500002 18.1439 0.554951 18.2879 0.664797 18.3978L9.1023 26.8353C9.32199 27.0549 9.67795 27.0549 9.89769 26.8352Z" fill="black"/>
</svg>
