<svg width="28" height="28" viewBox="0 0 28 28" fill="none" xmlns="http://www.w3.org/2000/svg">
<path d="M7.78125 15.5177H10.4042V25.2177C10.4042 25.649 10.7531 25.999 11.1854 25.999L15.3594 26C15.7917 26 16.1406 25.649 16.1406 25.2188V15.5187H18.6271C19.0208 15.5187 19.3531 15.225 19.4021 14.8344L19.9208 10.6677C19.9792 10.2031 19.6156 9.78958 19.1458 9.78958H16.1406C16.2583 7.21562 15.6875 6.45417 17.3615 6.45417C18.4948 6.31875 20.2823 6.89271 20.2823 5.67292V1.94687C20.2823 1.55625 19.9938 1.22604 19.6073 1.17292C19.2802 1.12812 17.9875 1 16.3844 1C9.08229 1 10.5854 9.09583 10.4052 9.78854H7.78125C7.35 9.78854 7 10.1385 7 10.5698V14.7365C7 15.1677 7.35 15.5177 7.78125 15.5177ZM8.5625 11.3521H11.1854C11.6167 11.3521 11.9667 11.0021 11.9667 10.5708V7.28854C11.9667 4.28542 13.576 2.56354 16.3833 2.56354C17.2979 2.56354 18.1396 2.60833 18.7188 2.65417V4.89271C18.3 5.10625 14.5771 3.97187 14.5771 7.70208V10.5719C14.5771 11.0031 14.9271 11.3531 15.3583 11.3531H18.2604L17.9354 13.9573H15.3583C14.9271 13.9573 14.5771 14.3073 14.5771 14.7385V24.4375H11.9677V14.7375C11.9677 14.3062 11.6177 13.9562 11.1865 13.9562H8.5625V11.3521Z" fill="#FAD984"/>
</svg>
