<svg width="28" height="28" viewBox="0 0 28 28" fill="none" xmlns="http://www.w3.org/2000/svg">
<path d="M19.5034 2H8.49657C4.9143 2 2 4.9143 2 8.49657V19.5036C2 23.0857 4.9143 26 8.49657 26H19.5036C23.0857 26 26 23.0857 26 19.5036V8.49657C26 4.9143 23.0857 2 19.5034 2V2ZM24.593 19.5036C24.593 22.3098 22.3098 24.593 19.5034 24.593H8.49657C5.69012 24.593 3.40698 22.3098 3.40698 19.5036V8.49657C3.40698 5.69012 5.69012 3.40698 8.49657 3.40698H19.5036C22.3098 3.40698 24.593 5.69012 24.593 8.49657V19.5036Z" fill="#FAD984"/>
<path d="M13.9999 7.43799C10.3814 7.43799 7.43762 10.3818 7.43762 14.0003C7.43762 17.6188 10.3814 20.5626 13.9999 20.5626C17.6184 20.5626 20.5622 17.6188 20.5622 14.0003C20.5622 10.3818 17.6184 7.43799 13.9999 7.43799V7.43799ZM13.9999 19.1556C11.1574 19.1556 8.8446 16.843 8.8446 14.0003C8.8446 11.1578 11.1574 8.84497 13.9999 8.84497C16.8426 8.84497 19.1552 11.1578 19.1552 14.0003C19.1552 16.843 16.8426 19.1556 13.9999 19.1556V19.1556Z" fill="#FAD984"/>
<path d="M20.7192 5.10742C19.6499 5.10742 18.7802 5.97735 18.7802 7.0465C18.7802 8.11584 19.6499 8.98577 20.7192 8.98577C21.7886 8.98577 22.6585 8.11584 22.6585 7.0465C22.6585 5.97717 21.7886 5.10742 20.7192 5.10742ZM20.7192 7.57861C20.4259 7.57861 20.1871 7.33984 20.1871 7.0465C20.1871 6.75299 20.4259 6.5144 20.7192 6.5144C21.0128 6.5144 21.2515 6.75299 21.2515 7.0465C21.2515 7.33984 21.0128 7.57861 20.7192 7.57861Z" fill="#FAD984"/>
</svg>
