<svg width="29" height="28" viewBox="0 0 29 28" fill="none" xmlns="http://www.w3.org/2000/svg">
<path d="M25.7613 4H4.16014C2.96876 4 2 4.9717 2 6.16668V21.3334C2 22.5283 2.96876 23.5 4.16014 23.5H25.7614C26.9527 23.5 27.9214 22.5283 27.9214 21.3333V6.16668C27.9214 4.9717 26.9527 4 25.7613 4ZM4.16014 5.08332H25.7614C25.841 5.08332 25.9111 5.11241 25.9857 5.12887C24.1156 6.84563 17.9145 12.5358 15.7444 14.4969C15.5746 14.6503 15.3009 14.8333 14.9608 14.8333C14.6206 14.8333 14.3469 14.6503 14.1766 14.4964C12.0067 12.5356 5.80524 6.84512 3.9354 5.12897C4.01023 5.11252 4.0805 5.08332 4.16014 5.08332ZM3.08004 21.3333V6.16668C3.08004 6.06055 3.11194 5.96427 3.14049 5.86728C4.57184 7.18129 8.8987 11.1516 11.7043 13.7106C8.90781 16.12 4.57984 20.2357 3.1371 21.6157C3.11164 21.5235 3.08004 21.4335 3.08004 21.3333ZM25.7613 22.4167H4.16014C4.07387 22.4167 3.99717 22.3865 3.91662 22.3672C5.40746 20.9417 9.76297 16.8023 12.5103 14.4449C12.8684 14.7708 13.1956 15.0679 13.4535 15.301C13.8986 15.7041 14.4196 15.9167 14.9607 15.9167C15.5018 15.9167 16.0228 15.704 16.4674 15.3015C16.7254 15.0683 17.0528 14.7709 17.4112 14.4449C20.1586 16.8021 24.5135 20.9411 26.0048 22.3672C25.9243 22.3865 25.8477 22.4167 25.7613 22.4167ZM26.8414 21.3333C26.8414 21.4334 26.8098 21.5235 26.7844 21.6157C25.3411 20.235 21.0136 16.1198 18.2172 13.7106C21.0229 11.1516 25.3491 7.1817 26.781 5.86718C26.8095 5.96417 26.8414 6.0605 26.8414 6.16663V21.3333Z" fill="#FAD984"/>
</svg>
