<svg width="29" height="28" viewBox="0 0 29 28" fill="none" xmlns="http://www.w3.org/2000/svg">
<path d="M15.113 1C10.0881 1 6 5.10048 6 10.1406C6 11.8435 6.47028 13.5054 7.36032 14.9472L14.5943 26.6399C14.7328 26.8639 14.977 27 15.2395 27C15.2416 27 15.2435 27 15.2456 27C15.5104 26.9979 15.755 26.8576 15.8911 26.6297L22.9406 14.8237C23.7816 13.4124 24.226 11.793 24.226 10.1406C24.226 5.10048 20.1379 1 15.113 1ZM21.6372 14.0415L15.228 24.7751L8.65123 14.1445C7.91039 12.9445 7.50871 11.56 7.50871 10.1406C7.50871 5.94051 10.9256 2.51328 15.113 2.51328C19.3004 2.51328 22.7122 5.94051 22.7122 10.1406C22.7122 11.5179 22.337 12.867 21.6372 14.0415Z" fill="#FAD984"/>
<path d="M15.113 5.57031C12.6006 5.57031 10.5565 7.62055 10.5565 10.1406C10.5565 12.6446 12.5673 14.7109 15.113 14.7109C17.6901 14.7109 19.6695 12.6171 19.6695 10.1406C19.6695 7.62055 17.6255 5.57031 15.113 5.57031ZM15.113 13.1977C13.4293 13.1977 12.0652 11.8249 12.0652 10.1406C12.0652 8.46058 13.4381 7.08359 15.113 7.08359C16.788 7.08359 18.1558 8.46058 18.1558 10.1406C18.1558 11.8003 16.8234 13.1977 15.113 13.1977Z" fill="#FAD984"/>
</svg>
