<svg width="28" height="28" viewBox="0 0 28 28" fill="none" xmlns="http://www.w3.org/2000/svg">
<path d="M24.7529 19.2343L21.0657 15.549C20.2288 14.7076 18.8704 14.706 18.0316 15.5454C18.0303 15.5466 18.0292 15.5478 18.028 15.549L15.9153 17.668C15.7555 17.8287 15.5036 17.851 15.3183 17.7207C14.162 16.9102 13.0796 15.9984 12.0838 14.9962C11.1919 14.1036 10.3715 13.1421 9.62996 12.1204C9.49556 11.9368 9.51509 11.6823 9.67586 11.5215L11.841 9.34985C12.6769 8.50979 12.6769 7.14955 11.841 6.30949L8.15374 2.61108C7.30406 1.79631 5.9657 1.79631 5.11603 2.61108L3.9482 3.78244C2.1845 5.53159 1.55488 8.12882 2.32105 10.4949C2.89278 12.226 3.70093 13.8693 4.72237 15.3779C5.64193 16.7609 6.69689 18.0484 7.87164 19.2211C9.1488 20.5113 10.5635 21.6566 12.0903 22.6366C13.7688 23.7352 15.6116 24.5572 17.549 25.0715C18.0471 25.1947 18.5582 25.2565 19.0712 25.2557C20.8296 25.2449 22.512 24.535 23.7492 23.2815L24.753 22.2746C25.5888 21.4346 25.5888 20.0744 24.7529 19.2343ZM23.8238 21.3771C23.823 21.3779 23.8221 21.3789 23.8212 21.3797L23.8277 21.36L22.8239 22.3668C21.5341 23.6769 19.6557 24.2159 17.8703 23.7883C16.0716 23.3054 14.3616 22.5367 12.8053 21.5114C11.3594 20.5845 10.0194 19.5009 8.80966 18.2801C7.69657 17.1718 6.69659 15.9549 5.82439 14.6475C4.87038 13.2407 4.11528 11.7082 3.58053 10.0935C2.96752 8.19668 3.4755 6.1153 4.89275 4.71697L6.06058 3.54561C6.38527 3.21847 6.91287 3.21731 7.23894 3.54299C7.23979 3.54383 7.24071 3.54468 7.24156 3.54561L10.9288 7.24402C11.255 7.5697 11.2561 8.09889 10.9314 8.42596C10.9306 8.42681 10.9297 8.42765 10.9288 8.42858L8.76368 10.6003C8.14244 11.2166 8.06432 12.196 8.58 12.9036C9.36308 13.9816 10.2297 14.9959 11.1716 15.9374C12.2218 16.9953 13.3635 17.9577 14.5833 18.8133C15.2881 19.3064 16.2437 19.2232 16.8534 18.6158L18.9463 16.4836C19.271 16.1565 19.7986 16.1553 20.1247 16.481C20.1255 16.4819 20.1263 16.4827 20.1273 16.4836L23.8211 20.1952C24.1474 20.5208 24.1485 21.0499 23.8238 21.3771Z" fill="#FAD984"/>
</svg>
